<svg width="21" height="14" viewBox="0 0 21 14" fill="none" xmlns="http://www.w3.org/2000/svg">
<path d="M3.13105e-06 11.7241C-0.000386356 11.9081 0.0355655 12.0903 0.105795 12.2604C0.176025 12.4304 0.279149 12.585 0.409249 12.7151C0.539349 12.8452 0.693862 12.9483 0.863921 13.0185C1.03398 13.0887 1.21623 13.1247 1.40022 13.1243H19.5998C19.7838 13.1246 19.966 13.0887 20.136 13.0184C20.3061 12.9482 20.4606 12.845 20.5907 12.715C20.7207 12.5849 20.8239 12.4304 20.8941 12.2603C20.9644 12.0903 21.0003 11.9081 21 11.7241V1.40022C21.0003 1.21625 20.9644 1.03401 20.8941 0.863972C20.8239 0.693933 20.7207 0.539437 20.5907 0.409346C20.4606 0.279255 20.3061 0.176129 20.136 0.105884C19.966 0.0356386 19.7838 -0.000342934 19.5998 3.13105e-06H1.40022C1.21623 -0.000386356 1.03398 0.0355655 0.863921 0.105795C0.693862 0.176025 0.539349 0.279149 0.409249 0.409249C0.279149 0.539349 0.176025 0.693862 0.105795 0.863921C0.0355655 1.03398 -0.000386356 1.21623 3.13105e-06 1.40022V11.7241ZM1.31322 11.1111V8.3107C1.31313 8.21887 1.33121 8.12793 1.36641 8.04311C1.40161 7.95829 1.45324 7.88128 1.51833 7.8165C1.58342 7.75171 1.66068 7.70045 1.74566 7.66564C1.83064 7.63084 1.92166 7.61319 2.01349 7.61371H4.81393C4.90575 7.61319 4.99676 7.63084 5.08172 7.66565C5.16668 7.70046 5.24392 7.75173 5.30898 7.81652C5.37404 7.8813 5.42564 7.95832 5.46081 8.04314C5.49597 8.12795 5.51401 8.21889 5.51388 8.3107V11.1111C5.51409 11.2031 5.49614 11.2942 5.46104 11.3793C5.42594 11.4643 5.37439 11.5415 5.30935 11.6066C5.24431 11.6716 5.16706 11.7231 5.08204 11.7582C4.99703 11.7933 4.90591 11.8113 4.81393 11.8111H2.01317C1.9212 11.8113 1.8301 11.7933 1.7451 11.7582C1.6601 11.723 1.58287 11.6715 1.51784 11.6065C1.45281 11.5414 1.40126 11.4642 1.36615 11.3792C1.33103 11.2942 1.31305 11.2031 1.31322 11.1111ZM6.56215 3.12284V2.07226C6.56228 2.02626 6.57149 1.98074 6.58924 1.9383C6.60699 1.89587 6.63294 1.85735 6.6656 1.82496C6.69827 1.79257 6.737 1.76695 6.77959 1.74956C6.82217 1.73216 6.86777 1.72334 6.91377 1.7236H19.3371C19.383 1.72338 19.4284 1.73225 19.4708 1.7497C19.5132 1.76714 19.5517 1.79282 19.5842 1.82524C19.6166 1.85766 19.6423 1.89618 19.6597 1.93858C19.6771 1.98098 19.686 2.02641 19.6858 2.07226V3.12284C19.6861 3.16869 19.6772 3.21415 19.6598 3.25657C19.6424 3.29899 19.6167 3.33753 19.5843 3.36996C19.5518 3.40238 19.5133 3.42806 19.4709 3.44549C19.4284 3.46292 19.383 3.47176 19.3371 3.47149H6.91377C6.86777 3.47175 6.82217 3.46293 6.77959 3.44554C6.737 3.42815 6.69827 3.40252 6.6656 3.37013C6.63294 3.33774 6.60699 3.29923 6.58924 3.25679C6.57149 3.21436 6.56228 3.16883 6.56215 3.12284ZM11.0691 10.9174V8.50309C11.0691 8.43343 11.0968 8.36663 11.146 8.31737C11.1953 8.26812 11.2621 8.24044 11.3318 8.24044H12.2786C12.3128 8.24057 12.3467 8.24749 12.3783 8.26079C12.4098 8.27409 12.4384 8.29351 12.4624 8.31793C12.4864 8.34236 12.5053 8.3713 12.5181 8.40308C12.5308 8.43486 12.5371 8.46885 12.5366 8.50309V10.9161C12.5371 10.9504 12.5308 10.9844 12.5181 11.0161C12.5053 11.0479 12.4864 11.0769 12.4624 11.1013C12.4384 11.1257 12.4098 11.1451 12.3783 11.1584C12.3467 11.1717 12.3128 11.1786 12.2786 11.1788H11.3304C11.2612 11.1784 11.195 11.1508 11.146 11.1018C11.0971 11.0529 11.0695 10.9866 11.0691 10.9174ZM13.4533 10.9174V8.50309C13.4533 8.43343 13.4809 8.36663 13.5302 8.31737C13.5794 8.26812 13.6462 8.24044 13.7159 8.24044H14.6611C14.7308 8.24044 14.7976 8.26812 14.8468 8.31737C14.8961 8.36663 14.9237 8.43343 14.9237 8.50309V10.9161C14.9237 10.9858 14.8961 11.0526 14.8468 11.1018C14.7976 11.1511 14.7308 11.1788 14.6611 11.1788H13.7146C13.6454 11.1784 13.5791 11.1508 13.5302 11.1018C13.4813 11.0529 13.4536 10.9866 13.4533 10.9174ZM15.8374 10.9174V8.50309C15.8369 8.46885 15.8432 8.43486 15.856 8.40308C15.8687 8.3713 15.8876 8.34236 15.9116 8.31793C15.9356 8.29351 15.9642 8.27409 15.9958 8.26079C16.0273 8.24749 16.0612 8.24057 16.0955 8.24044H17.0443C17.1139 8.24044 17.1807 8.26812 17.23 8.31737C17.2792 8.36663 17.3069 8.43343 17.3069 8.50309V10.9161C17.3069 10.9858 17.2792 11.0526 17.23 11.1018C17.1807 11.1511 17.1139 11.1788 17.0443 11.1788H16.0955C16.0613 11.1786 16.0276 11.1718 15.9961 11.1586C15.9646 11.1453 15.9361 11.126 15.9121 11.1017C15.8881 11.0775 15.8692 11.0487 15.8564 11.017C15.8435 10.9854 15.8371 10.9516 15.8374 10.9174ZM18.2183 10.9174V8.50309C18.2183 8.43343 18.2459 8.36663 18.2952 8.31737C18.3445 8.26812 18.4113 8.24044 18.4809 8.24044H19.4294C19.4637 8.24053 19.4976 8.24741 19.5292 8.26069C19.5607 8.27397 19.5894 8.29339 19.6134 8.31782C19.6374 8.34225 19.6564 8.3712 19.6692 8.403C19.6819 8.4348 19.6882 8.46882 19.6878 8.50309V10.9161C19.6882 10.9504 19.6819 10.9844 19.6692 11.0162C19.6564 11.048 19.6374 11.077 19.6134 11.1014C19.5894 11.1258 19.5607 11.1452 19.5292 11.1585C19.4976 11.1718 19.4637 11.1787 19.4294 11.1788H18.4796C18.4104 11.1784 18.3441 11.1508 18.2952 11.1018C18.2463 11.0529 18.2186 10.9866 18.2183 10.9174Z" fill="#174585"/>
</svg>
