<svg width="33" height="33" viewBox="0 0 33 33" fill="none" xmlns="http://www.w3.org/2000/svg">
<path fill-rule="evenodd" clip-rule="evenodd" d="M29.95 2.41865C29.4 1.86865 28.3917 1.32365 27.2667 0.91032C25.8356 0.388053 24.3334 0.08682 22.8117 0.0169869C19.8283 -0.12468 16.265 0.591987 12.8617 3.21699C12.8089 3.23658 12.7572 3.25883 12.7067 3.28365L7.99167 5.64365C7.69174 5.79359 7.44402 6.0305 7.28086 6.32343C7.1177 6.61637 7.04669 6.95171 7.07712 7.28564C7.10754 7.61957 7.23798 7.93655 7.45139 8.19518C7.6648 8.45381 7.95125 8.64206 8.27333 8.73532C7.1978 10.8941 6.5321 13.2337 6.31 15.6353C6.185 16.9387 6.095 18.852 6.00167 20.8387C5.96333 21.6753 5.92333 22.527 5.88 23.3503C4.85167 23.4337 3.9 23.532 3.12333 23.657C2.30667 23.7903 1.38667 23.952 0.726666 24.4953C0.445 24.7287 0 25.2237 0 25.9903C0 27.5287 1.38667 28.952 2.40333 29.967C3.41833 30.9837 4.84167 32.3703 6.38 32.3703C7.14667 32.3703 7.64333 31.9253 7.875 31.6437C8.41833 30.9837 8.58 30.0653 8.71333 29.247C8.85194 28.3325 8.95424 27.4129 9.02 26.4903C9.84333 26.447 10.6933 26.407 11.5317 26.3687C13.5183 26.2753 15.4317 26.1853 16.735 26.0603C19.1366 25.8382 21.4762 25.1725 23.635 24.097C23.7283 24.4191 23.9165 24.7055 24.1751 24.9189C24.4338 25.1323 24.7508 25.2628 25.0847 25.2932C25.4186 25.3236 25.7539 25.2526 26.0469 25.0895C26.3398 24.9263 26.5767 24.6786 26.7267 24.3787L29.0833 19.6637C29.1093 19.6127 29.1327 19.5604 29.1533 19.507C31.7767 16.1053 32.4933 12.542 32.3517 9.55865C32.2818 8.03691 31.9806 6.53468 31.4583 5.10365C31.045 3.97865 30.5017 2.96865 29.95 2.41865ZM11.5333 23.027C10.78 23.062 10.005 23.0987 9.22833 23.1387C9.26833 22.362 9.305 21.587 9.34 20.8353C9.42833 18.9403 9.50833 17.1953 9.62833 15.9487C9.96167 12.4353 11.385 9.19699 13.4517 7.13199C16.6183 3.96532 19.9717 3.21699 22.6517 3.34532C23.8344 3.39826 25.0023 3.63092 26.115 4.03532C26.6167 4.22032 27.165 4.43365 27.59 4.77199L27.5933 4.77365L27.595 4.77699C27.9333 5.20032 28.145 5.75032 28.3317 6.25199C28.665 7.15865 28.9567 8.35365 29.0217 9.71365C29.15 12.3953 28.4017 15.7503 25.2367 18.9153C23.17 20.982 19.9333 22.4053 16.42 22.7387C15.17 22.8587 13.4267 22.9387 11.5317 23.027H11.5333ZM4.085 26.8803C4.545 26.8187 5.075 26.7637 5.655 26.7103C5.605 27.2937 5.54833 27.822 5.48667 28.2803C4.98595 27.849 4.51633 27.381 4.085 26.8803ZM20.5217 11.8453C20.9904 12.3143 21.6263 12.5779 22.2894 12.578C22.9525 12.5782 23.5885 12.3149 24.0575 11.8462C24.5265 11.3774 24.7901 10.7415 24.7902 10.0784C24.7904 9.41531 24.5271 8.77931 24.0583 8.31032C23.5893 7.84133 22.9533 7.57785 22.29 7.57785C21.6267 7.57785 20.9907 7.84133 20.5217 8.31032C20.0527 8.77931 19.7892 9.4154 19.7892 10.0787C19.7892 10.7419 20.0527 11.378 20.5217 11.847V11.8453Z" fill="white"/>
</svg>
