<svg width="37" height="35" viewBox="0 0 37 35" fill="none" xmlns="http://www.w3.org/2000/svg">
<path d="M17.7998 3.32238C9.65818 -1.16679 5.87151 4.68238 4.46651 6.65571C-0.25349 7.67071 2.08818 9.42571 3.63318 9.98905C4.64484 10.3274 7.08818 11.0915 8.63318 11.6557C8.97068 14.3624 10.019 16.784 10.2998 17.489C10.2998 16.8124 11.4048 14.4499 11.9665 13.3224C18.7098 16.029 23.464 22.9907 26.1332 26.6557C25.1215 28.6857 24.0548 31.9124 23.6332 33.3224L28.6332 30.8224L34.4665 32.489C34.4665 29.7824 31.0123 26.9499 29.4665 25.8224C30.1415 14.9957 25.0582 8.48905 21.9665 6.65571C22.304 5.30238 22.9307 3.05321 23.6332 2.48905C20.9357 1.13571 18.7832 2.61738 17.7998 3.32238Z" stroke="white" stroke-width="3.33333" stroke-linecap="round" stroke-linejoin="round"/>
</svg>
