<svg width="29" height="34" viewBox="0 0 29 34" fill="none" xmlns="http://www.w3.org/2000/svg">
<path d="M14.1776 3.33333C20.511 3.33333 25.011 8 25.011 14.6667C18.0322 17.3184 10.3231 17.3184 3.34432 14.6667C3.34432 8 7.84432 3.33333 14.1776 3.33333ZM14.1776 0C6.34432 0 0.0109831 5.83333 0.0109831 14.8333C0.110983 16.1667 0.944317 17.3333 2.17765 17.8333L5.01098 18.6667V22.5C5.01098 22.721 4.92319 22.933 4.76691 23.0893C4.61062 23.2455 4.39866 23.3333 4.17765 23.3333C3.95664 23.3333 3.74467 23.2455 3.58839 23.0893C3.43211 22.933 3.34432 22.721 3.34432 22.5C3.37178 22.2745 3.34757 22.0458 3.27353 21.8311C3.19948 21.6164 3.07754 21.4213 2.91694 21.2607C2.75634 21.1001 2.56129 20.9782 2.34657 20.9041C2.13186 20.8301 1.90311 20.8059 1.67765 20.8333C1.45219 20.8059 1.22344 20.8301 1.00873 20.9041C0.794011 20.9782 0.598965 21.1001 0.438364 21.2607C0.277763 21.4213 0.155819 21.6164 0.0817728 21.8311C0.00772612 22.0458 -0.0164816 22.2745 0.0109831 22.5C-0.0103192 23.0389 0.0773306 23.5765 0.268685 24.0806C0.460039 24.5848 0.751163 25.0452 1.12463 25.4342C1.49809 25.8233 1.94621 26.1329 2.44217 26.3447C2.93812 26.5565 3.47171 26.666 4.01098 26.6667H4.17765C6.52765 26.7667 8.44432 24.85 8.34432 22.5V19.5H10.011V29C10.011 30.1167 8.34432 30.1167 8.34432 29C8.37178 28.7745 8.34757 28.5458 8.27353 28.3311C8.19948 28.1164 8.07754 27.9213 7.91693 27.7607C7.75633 27.6001 7.56129 27.4782 7.34657 27.4041C7.13186 27.3301 6.90311 27.3059 6.67765 27.3333C6.45219 27.3059 6.22344 27.3301 6.00873 27.4041C5.79401 27.4782 5.59896 27.6001 5.43836 27.7607C5.27776 27.9213 5.15582 28.1164 5.08177 28.3311C5.00773 28.5458 4.98352 28.7745 5.01098 29C4.82765 31.3333 6.67765 33.3333 9.01098 33.3333H9.17765C11.5276 33.4333 13.4443 31.5167 13.3443 29.1667V20H15.011V29.1667C14.9859 29.7205 15.0764 30.2735 15.277 30.7904C15.4775 31.3073 15.7835 31.7768 16.1755 32.1688C16.5676 32.5608 17.037 32.8669 17.5539 33.0674C18.0708 33.2679 18.6238 33.3585 19.1776 33.3333H19.3443C21.6276 33.3333 23.4443 31.4333 23.3443 29.1667C23.3443 26.95 20.011 26.95 20.011 29.1667C20.011 30.2833 18.3443 30.2833 18.3443 29.1667V19.6667H20.011V22.6667C20.011 24.9333 21.8943 26.7667 24.1776 26.6667H24.3443C26.6276 26.6667 28.4443 24.7667 28.3443 22.5C28.3443 20.2833 25.011 20.2833 25.011 22.5C25.011 23.6167 23.3443 23.6167 23.3443 22.5V18.6667L26.1777 17.8333C27.3777 17.2667 28.1943 16.1333 28.3443 14.8333C28.3443 5.83333 22.011 0 14.1776 0ZM14.1776 7C11.7276 7.66667 9.57765 9.21667 8.17765 11.3333C7.51098 12.2167 6.17765 11.2167 6.84432 10.3333C8.50945 7.88789 10.991 6.11535 13.8443 5.33333C13.9539 5.30912 14.0673 5.3073 14.1776 5.32798C14.2879 5.34866 14.3929 5.39142 14.4863 5.45368C14.5797 5.51594 14.6596 5.59642 14.7211 5.6903C14.7826 5.78418 14.8245 5.88952 14.8443 6C15.011 6.5 14.6776 6.83333 14.1776 7Z" fill="white"/>
</svg>
