<svg width="38" height="37" viewBox="0 0 38 37" fill="none" xmlns="http://www.w3.org/2000/svg">
<path d="M18.5837 0C17.5111 0 15.0876 2.19766 15.0876 4.90734C15.0876 7.37438 15.5901 9.26945 16.3767 10.4493C14.5686 10.7435 12.9207 11.4274 11.6087 12.5832C11.3742 12.7901 11.1524 13.0111 10.9447 13.2449C7.94974 10.4143 1.94333 14.263 0.241538 16.3137C-1.29002 18.1588 4.80365 18.3932 8.89138 17.6223C8.74787 18.3843 8.67162 19.2052 8.67162 20.0855C8.67162 23.1795 9.58412 26.0399 11.1058 28.2326C7.77099 28.6146 6.26857 33.2485 6.33287 35.298C6.40412 37.5719 12.3485 33.9138 14.5751 31.4406C15.2641 31.8205 15.9967 32.1045 16.7626 32.2805C17.1393 33.3941 17.5849 34.4987 18.5838 35.5348C19.6566 34.4496 20.0496 33.3652 20.4026 32.2804C21.1694 32.1044 21.9028 31.8208 22.5926 31.4405C24.819 33.9137 30.7635 37.5718 30.8348 35.2979C30.899 33.2484 29.3965 28.6143 26.0618 28.2324C27.5834 26.0398 28.4958 23.1793 28.4958 20.0855C28.4958 19.2051 28.4197 18.3841 28.2763 17.6221C32.364 18.393 38.4576 18.1587 36.9261 16.3135C35.2242 14.2629 29.2178 10.4141 26.2229 13.2448C26.0152 13.011 25.7934 12.79 25.5589 12.583C24.2417 11.4225 22.5856 10.739 20.7689 10.4468C21.5683 9.2507 22.0798 7.33609 22.0798 4.90727C22.0798 2.19766 19.6565 0 18.5837 0ZM18.5837 11.7383C20.1634 11.7383 21.614 12.0058 22.8465 12.5611L20.7883 15.0588H16.379L14.321 12.5611C15.5534 12.0058 17.0038 11.7384 18.5836 11.7384L18.5837 11.7383ZM13.0418 13.3033L15.0535 15.7447L12.7121 19.1847L12.3777 19.6753L12.7926 20.1027L15.6466 23.0421L13.8254 25.2637L13.4129 25.7666L13.8644 26.2354L15.9836 28.4229L17.0334 27.4073L15.3659 25.6862L17.0479 23.6377H20.1193L21.8013 25.6862L20.1339 27.4073L21.1837 28.4229L23.3029 26.2354L23.7544 25.7666L23.3419 25.2637L21.5208 23.0422L24.3772 20.1027L24.7874 19.6778L24.4577 19.1872L22.136 15.7203L24.1282 13.3033C24.2892 13.4207 24.4449 13.5453 24.5946 13.6769C26.0872 14.9919 27.036 17.0177 27.036 20.0855C27.036 26.2213 23.1532 31.0279 18.5836 31.0279C14.0144 31.0279 10.1316 26.2213 10.1316 20.0855C10.1316 17.0176 11.0801 14.9918 12.573 13.677C12.7225 13.5451 12.8801 13.4213 13.0418 13.3034V13.3033ZM16.2912 16.5187H20.9128L22.9171 19.507L20.3243 22.1777H16.8429L14.2551 19.5117L16.2912 16.5187Z" fill="white"/>
</svg>
