<svg width="24" height="24" viewBox="0 0 24 24" fill="none" xmlns="http://www.w3.org/2000/svg">
<path d="M21.651 12.2367C21.5573 12.0135 21.3365 11.8696 21.104 11.7918L12.3299 8.30058C12.1137 8.23314 11.882 8.23314 11.6657 8.30058L2.90009 11.7937C2.66571 11.8668 2.4393 12.0173 2.34649 12.2404C2.25368 12.4635 2.20868 12.6796 2.29962 12.9473L4.48071 18.5325C4.50851 18.6011 4.5574 18.6592 4.62033 18.6983C4.68327 18.7374 4.75699 18.7555 4.83087 18.75C6.08196 18.6712 7.18915 18.036 8.03618 17.2265C8.10276 17.164 8.19068 17.1291 8.28204 17.1291C8.3734 17.1291 8.46132 17.164 8.5279 17.2265C9.43352 18.0937 10.6387 18.75 11.9981 18.75C13.3574 18.75 14.5556 18.0937 15.4612 17.2246C15.5278 17.1621 15.6158 17.1272 15.7073 17.1272C15.7987 17.1272 15.8867 17.1621 15.9534 17.2246C16.8004 18.0346 17.9076 18.6712 19.1587 18.75C19.2323 18.7555 19.3059 18.7376 19.3687 18.6988C19.4315 18.66 19.4804 18.6022 19.5084 18.5339L21.6974 12.9482C21.7902 12.7242 21.7438 12.4603 21.651 12.2367Z" stroke="white" stroke-width="1.5" stroke-miterlimit="10"/>
<path d="M19.501 22.1792C19.501 22.1216 19.4855 22.0652 19.4561 22.0157C19.4267 21.9662 19.3846 21.9255 19.3341 21.8979C18.0647 21.2159 16.9074 20.172 16.3983 19.6479C16.3227 19.5686 16.2218 19.5182 16.1129 19.5052C16.0041 19.4923 15.8942 19.5177 15.8021 19.5771C13.4429 21.0968 10.5704 21.0978 8.21067 19.5795C8.11775 19.5195 8.00676 19.494 7.89697 19.5073C7.78718 19.5207 7.68554 19.5721 7.60973 19.6526C7.10489 20.1814 5.9602 21.2136 4.68332 21.8909C4.63266 21.9166 4.58936 21.9547 4.55746 22.0016C4.52557 22.0486 4.50613 22.1029 4.50098 22.1595C4.49717 22.2077 4.50449 22.2561 4.52237 22.301C4.54024 22.3459 4.5682 22.3861 4.60407 22.4185C4.63995 22.4509 4.68279 22.4746 4.72928 22.4878C4.77578 22.501 4.82468 22.5033 4.87223 22.4946C5.84957 22.2987 6.7941 21.8534 7.6941 21.3776C7.75184 21.3472 7.81602 21.3311 7.88126 21.3306C7.94651 21.3301 8.01092 21.3453 8.0691 21.3748C9.28796 21.995 10.6361 22.3183 12.0037 22.3185C13.3712 22.3187 14.7195 21.9956 15.9385 21.3757C15.9973 21.3459 16.0625 21.3306 16.1284 21.3311C16.1944 21.3316 16.2593 21.3479 16.3177 21.3786C17.213 21.8473 18.1561 22.2968 19.1302 22.4942C19.1761 22.5027 19.2233 22.501 19.2684 22.489C19.3135 22.4771 19.3554 22.4553 19.3911 22.4252C19.4267 22.3951 19.4553 22.3575 19.4746 22.315C19.4939 22.2725 19.5036 22.2263 19.5029 22.1796L19.501 22.1792Z" fill="white"/>
<path d="M15 4.5V3.375C14.9991 3.0769 14.8803 2.79125 14.6695 2.58046C14.4587 2.36967 14.1731 2.25087 13.875 2.25H10.125C9.8269 2.25087 9.54125 2.36967 9.33046 2.58046C9.11967 2.79125 9.00087 3.0769 9 3.375V4.5M19.5 10.9219V6.75C19.4983 6.1538 19.2607 5.5825 18.8391 5.16092C18.4175 4.73934 17.8462 4.50173 17.25 4.5H6.75C6.1538 4.50173 5.5825 4.73934 5.16092 5.16092C4.73934 5.5825 4.50173 6.1538 4.5 6.75V11.0625M12 8.60625V18.5836" stroke="white" stroke-width="1.5" stroke-linecap="round" stroke-linejoin="round"/>
</svg>
