<svg width="24" height="24" viewBox="0 0 24 24" fill="none" xmlns="http://www.w3.org/2000/svg">
<path d="M20.1786 11.5887V15.553H4.32143V4.98158H8.94643V3.66016H4.32143C3.97096 3.66016 3.63485 3.79938 3.38704 4.04719C3.13922 4.29501 3 4.63112 3 4.98158V15.553C3 15.9035 3.13922 16.2396 3.38704 16.4874C3.63485 16.7352 3.97096 16.8744 4.32143 16.8744H9.60714V19.5173H6.96429V20.8387H17.5357V19.5173H14.8929V16.8744H20.1786C20.529 16.8744 20.8651 16.7352 21.113 16.4874C21.3608 16.2396 21.5 15.9035 21.5 15.553V11.5887H20.1786ZM13.5714 19.5173H10.9286V16.8744H13.5714V19.5173Z" fill="white"/>
<path d="M13.5703 12.9108H13.5637C13.4213 12.9093 13.2833 12.8619 13.17 12.7755C13.0568 12.6892 12.9745 12.5687 12.9354 12.4318L11.7507 8.28579H8.94531V6.96436H12.2489C12.3925 6.96428 12.5322 7.01099 12.6469 7.09742C12.7616 7.18386 12.845 7.3053 12.8845 7.44338L13.5941 9.92766L15.5822 3.46588C15.6247 3.33157 15.7087 3.21417 15.822 3.1305C15.9354 3.04682 16.0723 3.00117 16.2132 3.00007C16.3524 2.99798 16.4886 3.04081 16.6015 3.12222C16.7145 3.20363 16.7982 3.31927 16.8402 3.452L18.0103 6.96436H21.4989V8.28579H17.5346C17.3959 8.28582 17.2607 8.24219 17.1481 8.16107C17.0356 8.07996 16.9514 7.96548 16.9076 7.83386L16.2383 5.82529L14.202 12.4443C14.1604 12.5794 14.0766 12.6976 13.9629 12.7816C13.8493 12.8655 13.7116 12.9108 13.5703 12.9108Z" fill="white"/>
</svg>
