<svg width="37" height="37" viewBox="0 0 37 37" fill="none" xmlns="http://www.w3.org/2000/svg">
<path d="M21.3477 0C21.3164 0.76875 21.2773 1.53984 21.2383 2.31172C20.9414 2.28203 20.6367 2.12422 20.2773 1.85859C19.7383 1.45859 19.1836 0.826562 18.6211 0.272656L17.6367 1.27891C18.1367 1.76875 18.7227 2.45078 19.4336 2.98516C19.9258 3.35156 20.5352 3.65469 21.1992 3.70547C21.1133 6.63594 21.168 9.55781 21.7383 12.3937C20.8867 13.5187 20.207 14.8156 19.707 16.1594C19.6289 16.3703 19.5586 16.5813 19.4805 16.7922C18.4336 16.3234 17.3164 15.5734 16.2305 14.6984C15.1602 12.0422 15.0898 9.33906 16.6211 7.22188C17.3867 6.75313 17.7617 5.83438 17.8711 4.89297L16.4727 4.72969C16.3945 5.45938 15.9727 6.00312 15.7773 6.06562C15.7617 6.07344 15.7461 6.07344 15.7305 6.08125L15.7227 6.07344C15.7227 6.08125 15.7148 6.08125 15.7148 6.08906C15.6367 6.10469 15.5508 6.08125 15.3633 5.95625C15.1289 5.79531 14.793 5.4125 14.4336 4.73047L13.1836 5.38047C13.6055 6.19063 14.0508 6.75313 14.5586 7.1125C14.6758 7.19063 14.793 7.25313 14.9102 7.30781C14.0117 9.03438 13.8633 10.9875 14.2461 12.9328C14.1758 12.8703 14.1133 12.8 14.043 12.7375C12.1133 10.8234 10.6602 8.97188 9.62109 8.04219C9.55078 7.26875 9.50391 6.64375 9.55078 6.12813C9.62109 5.28984 9.83984 4.73906 10.5586 4.04141L9.57422 3.03516C8.66797 3.92266 8.23828 4.92266 8.14453 6.01094C8.08984 6.7375 8.15234 7.55 8.24609 8.43281C6.58203 7.50313 5.01641 6.77656 3.05391 6.28438L2.71484 7.65156C4.67578 8.14375 6.175 8.8625 7.92578 9.87031C8.46484 10.3469 10.2148 12.4563 12.2852 14.5109C14.1758 16.3859 16.4102 18.3156 18.9102 19.2609C18.6602 21.1125 18.8398 22.9484 19.6836 24.4953C19.1836 25.0188 18.7461 25.5734 18.3633 26.1516C18.1523 26.4719 17.9648 26.7922 17.7852 27.1203C16.0508 26.5188 13.7148 25.0422 11.7852 23.3859C11.7305 23.3391 11.6758 23.2844 11.6133 23.2375C11.6367 22.675 11.8633 22.0109 12.2227 21.3625C12.6758 20.5422 13.332 19.7687 13.9102 19.2453L12.9648 18.1984C12.2695 18.8313 11.5352 19.6984 10.9961 20.675C10.7461 21.1281 10.5273 21.6047 10.3867 22.0969C9.83203 21.55 9.33203 21.0109 8.92578 20.5188C8.19922 19.6281 7.78516 18.7844 7.75391 18.6047C7.18359 15.5891 6.91797 14.6125 4.62656 11.5031L2.61328 12.9875C3.17422 13.7453 3.58516 14.3234 3.89687 14.8C2.81719 14.9172 1.63047 14.6281 0.945313 14.0031L0 15.05C1.21406 16.1516 3.00859 16.4797 4.60547 16.1125C4.9 16.8469 5.01563 17.6125 5.29297 19.0734C5.31484 19.1906 5.34297 19.3 5.375 19.4172H5.29453C3.73906 19.4797 2.36172 20.3234 1.29844 21.4953L2.33906 22.4406C3.43906 21.2297 4.61016 20.5813 6.06328 20.8625C6.32422 21.2688 6.63672 21.6672 6.98828 22.0969C7.83984 23.1359 8.93359 24.2375 10.1523 25.2844C11.0039 26.0109 11.9102 26.7141 12.832 27.3469C11.1758 27.9797 8.72266 28.3234 6.85547 28.0109L6.62109 29.3937C7.52734 29.55 8.49609 29.5969 9.45703 29.5344C9.35547 29.9016 9.34766 30.2844 9.41797 30.6359C9.57422 31.425 10.0977 32.0969 10.8008 32.5734L11.5898 31.4172C11.1367 31.1047 10.8633 30.6984 10.793 30.3547C10.7227 30.0109 10.7773 29.7063 11.168 29.3313C12.3164 29.1125 13.3945 28.7531 14.2695 28.2531C15.1055 28.7297 15.9492 29.1359 16.7773 29.425C15.9023 31.9719 15.7617 34.4719 15.707 36.0344H18.207C18.2773 33.9016 18.5664 30.3859 20.4492 27.5344C21.2148 26.3781 22.2148 25.3078 23.6133 24.4641C25.457 24.8234 27.2539 25.2219 28.8945 25.7922C28.7539 26.5422 28.2773 26.925 27.707 27.5813C27.4102 27.9328 27.0898 28.3625 26.9414 28.9328C26.7852 29.5031 26.8086 30.1828 27.0586 30.9562L28.4023 30.5344C28.207 29.9406 28.2227 29.5813 28.293 29.3C28.3711 29.0188 28.5273 28.7844 28.7773 28.5031C29.1992 28.0109 29.9336 27.3781 30.2148 26.3156C31.0117 26.6672 31.7617 27.0734 32.4492 27.5656L33.2617 26.4172C31.0742 24.8547 28.457 24.0578 25.7617 23.4719C27.5273 22.8625 29.7383 22.55 32.5508 22.6437C32.9727 23.5422 33.8086 24.3391 34.832 24.9875L35.5898 23.8C34.2383 22.9406 33.5977 21.9328 33.6602 21.2531C33.6992 20.9094 33.8867 20.5578 34.3945 20.1672C34.9102 19.7766 35.7539 19.3781 36.9961 19.0734L36.6523 17.7062C35.293 18.0422 34.2773 18.4875 33.5352 19.05C33.1289 19.3703 32.793 19.7375 32.582 20.1359C32.1992 20.1281 31.8477 20.1203 31.4961 20.1281C30.4492 20.1359 29.4648 20.2063 28.5352 20.3234C30.082 18.4484 31.0195 16.2687 31.3555 13.8391L29.9727 13.6437C29.8242 14.6594 29.5742 15.6125 29.1992 16.5188C28.7695 16.4719 28.3867 16.2922 28.0586 16.0344C27.6055 15.6672 27.2852 15.1281 27.1914 14.6516L25.8086 14.9328C25.9805 15.7687 26.4648 16.5578 27.1758 17.1281C27.5664 17.4406 28.0508 17.6906 28.5586 17.8234C27.9492 18.9016 27.1445 19.8859 26.1445 20.8C24.3867 21.2609 22.9023 21.9562 21.6602 22.8C21.1367 21.2922 21.2695 19.1281 22.043 17.0344C22.8711 14.8156 24.3789 12.8 25.9414 11.8234C26.3242 11.9875 26.7539 12.0656 27.168 12.0891C28.0273 12.1359 28.9414 11.9875 29.8008 11.7766C31.5273 11.3625 33.0508 10.6906 33.0508 10.6906L32.4883 9.40156C32.4883 9.40156 31.043 10.0344 29.4727 10.4094C28.6914 10.5969 27.8789 10.7219 27.2461 10.6828C26.6211 10.6516 26.2695 10.4875 26.1055 10.2375C26.043 10.1359 26.0117 9.94063 26.1523 9.56563C26.293 9.18281 26.5898 8.70625 26.9258 8.26094C27.5898 7.37813 28.3789 6.63594 28.3789 6.63594L27.4258 5.60781C27.4258 5.60781 26.5586 6.40938 25.8008 7.41719C25.418 7.925 25.0586 8.47969 24.8398 9.07344C24.7695 9.26094 24.7148 9.45625 24.6836 9.65937C24.0508 10.0344 23.457 10.4953 22.918 11.0266C22.3867 7.55 22.582 3.82969 22.7461 0.0640625L21.3477 0Z" fill="white"/>
</svg>
