<svg width="40" height="40" viewBox="0 0 40 40" fill="none" xmlns="http://www.w3.org/2000/svg">
<path d="M40 28V32H36C33.2 32 30.4 31.2 28 30C23 32.6 17 32.6 12 30C9.6 31.2 6.8 32 4 32H0V28H4C6.8 28 9.6 27 12 25.4C16.8 28.8 23.2 28.8 28 25.4C30.4 27 33.2 28 36 28H40ZM6.56 23.58C7.64 23.26 8.74 22.76 9.78 22.08L12 20.56C13.38 16 13.56 10.54 11.18 4.28C19.9 5.78 27.78 13.3 30.74 22.38C32.24 23.28 33.82 23.82 35.32 23.94C32.48 10.8 20.74 0 8 0C7.3 0 6.66 0.36 6.3 0.94C5.94 1.54 5.9 2.28 6.22 2.9C10.56 11.58 9.22 18.58 6.56 23.58ZM28 33.4C23.2 36.8 16.8 36.8 12 33.4C9.6 35 6.8 36 4 36H0V40H4C6.8 40 9.6 39.2 12 38C17 40.6 23 40.6 28 38C30.4 39.2 33.2 40 36 40H40V36H36C33.2 36 30.4 35 28 33.4Z" fill="white"/>
</svg>
