<svg width="44" height="40" viewBox="0 0 44 40" fill="none" xmlns="http://www.w3.org/2000/svg">
<path d="M34 38C34 33.7565 32.3143 29.6869 29.3137 26.6863C26.3131 23.6857 22.2435 22 18 22C13.7565 22 9.68687 23.6857 6.68629 26.6863C3.68571 29.6869 2 33.7565 2 38" stroke="white" stroke-width="4" stroke-linecap="round" stroke-linejoin="round"/>
<path d="M18 22C23.5228 22 28 17.5228 28 12C28 6.47715 23.5228 2 18 2C12.4772 2 8 6.47715 8 12C8 17.5228 12.4772 22 18 22Z" stroke="white" stroke-width="4" stroke-linecap="round" stroke-linejoin="round"/>
<path d="M42.0016 36.0004C42.0016 29.2604 38.0016 23.0004 34.0016 20.0004C35.3164 19.0139 36.3678 17.7186 37.0627 16.2289C37.7576 14.7393 38.0746 13.1013 37.9856 11.46C37.8966 9.81866 37.4044 8.22456 36.5525 6.81879C35.7006 5.41302 34.5153 4.23891 33.1016 3.40039" stroke="white" stroke-width="4" stroke-linecap="round" stroke-linejoin="round"/>
</svg>
