<svg width="45" height="45" viewBox="0 0 45 45" fill="none" xmlns="http://www.w3.org/2000/svg">
<path d="M9.67578 35.7988C10.7911 36.6453 10.866 36.7015 10.8711 36.7051H10.8721V36.7041C10.8726 36.7034 10.8734 36.702 10.874 36.7012C10.8753 36.6995 10.8773 36.6975 10.8789 36.6953C10.8821 36.691 10.8861 36.6858 10.8906 36.6797C10.9001 36.6668 10.9128 36.6497 10.9277 36.6289C10.9578 36.5872 10.9983 36.5296 11.0469 36.458C11.144 36.3149 11.2753 36.113 11.4199 35.8643C11.7055 35.3732 12.0633 34.6683 12.3154 33.8506C12.5082 33.2254 12.7527 32.5647 13.0137 31.998C13.2912 31.3953 13.5276 31.0317 13.665 30.8887H13.666C13.7776 30.7727 14.0926 30.546 14.6436 30.2656C15.1578 30.0039 15.7616 29.753 16.334 29.5518C16.3741 29.5377 16.4145 29.5254 16.4541 29.5117C16.5357 29.7475 16.6306 30.0257 16.7412 30.3574L17.1602 31.6133L18.458 31.3535C22.976 30.45 29.5497 31.2975 37.2637 37.083L41.1055 39.9639L39.5869 35.4082C38.6615 32.6321 37.5733 27.3829 34.5723 20.3623C34.1722 19.1531 33.9798 18.2097 33.9297 17.4971C34.7696 17.0642 35.3471 16.4066 35.7207 15.833C35.9658 15.4566 36.1906 15.0451 36.333 14.8008C36.5065 14.5031 36.5902 14.3922 36.6318 14.3506L37.6924 13.29L34.7568 10.3545L33.6963 11.415C33.2577 11.8537 32.9549 12.321 32.7324 12.7031C32.6427 12.8573 32.5772 12.9782 32.5225 13.0781C32.3191 13.0049 32.1476 12.9404 31.998 12.876C31.6583 12.7295 31.5381 12.6338 31.4756 12.5713C31.413 12.5087 31.3174 12.3886 31.1709 12.0488C31.1063 11.899 31.0411 11.7273 30.9678 11.5234C31.0678 11.4687 31.1894 11.4043 31.3438 11.3145C31.7259 11.092 32.1932 10.7892 32.6318 10.3506L33.6924 9.29004L30.7568 6.35449L29.6963 7.41504C29.6547 7.45664 29.5438 7.5404 29.2461 7.71387C29.0017 7.85626 28.5904 8.08095 28.2139 8.32617C27.6405 8.69969 26.9817 9.27643 26.5488 10.1162C25.8361 10.066 24.8928 9.87381 23.6836 9.47363C16.6635 6.47293 11.4147 5.38525 8.63867 4.45996L4.08301 2.94141L6.96387 6.7832C12.7494 14.4972 13.5969 21.0709 12.6934 25.5889L12.4717 26.6914C11.8129 27.0488 11.1806 27.4827 10.6729 28.0107C9.45322 29.2789 8.77506 31.2405 8.34766 32.627C8.06171 33.5545 8.03248 34.4264 8.06738 35.0488C8.08507 35.3641 8.11953 35.6276 8.15137 35.8184C8.16732 35.9139 8.18291 35.9923 8.19531 36.0508C8.20153 36.0801 8.20745 36.1048 8.21191 36.124C8.2141 36.1334 8.21611 36.1416 8.21777 36.1484C8.21861 36.1519 8.21903 36.1554 8.21973 36.1582C8.22006 36.1595 8.22041 36.1609 8.2207 36.1621L8.22168 36.1641V36.165C8.2242 36.1648 8.28227 36.1502 9.67578 35.7988ZM9.67578 35.7988L8.22168 36.166L8.98438 39.1914L10.8711 36.7061L9.67578 35.7988Z" stroke="white" stroke-width="3"/>
</svg>
